<svg xmlns="http://www.w3.org/2000/svg" width="64" height="64" viewBox="0 0 64 64"><defs><linearGradient id="field" x2="0.8" y2="1"><stop stop-color="#293936"/><stop offset="1" stop-color="#101412"/></linearGradient><linearGradient id="metal" x2="0.8" y2="1"><stop stop-color="#f1e9d9"/><stop offset="0.5" stop-color="#d6c29a"/><stop offset="1" stop-color="#bba57a"/></linearGradient></defs><g color="#d6c29a" stroke-linecap="round" stroke-linejoin="round"><path d="M33 8C39 22 23 21 38 33L45 22C62 48 37 60 23 51C10 43 15 31 24 24C21 36 28 37 29 31C34 23 28 18 33 8Z" fill="#51352b" stroke="#d6c29a" stroke-width="2.6"/><g transform="translate(17 18) scale(.5)"><path d="M19 46 43 15 51 11 51 21 26 48Z" fill="#324440" stroke="#d6c29a" stroke-width="2.6"/><path d="M20 38 32 48 M15 52 22 44 M12 49 19 55" fill="none" stroke="#d6c29a" stroke-width="2.6"/></g></g></svg>
