<svg xmlns="http://www.w3.org/2000/svg" width="256" height="256" viewBox="0 0 64 64"><defs><linearGradient id="field" x2="0.8" y2="1"><stop stop-color="#293936"/><stop offset="1" stop-color="#101412"/></linearGradient><linearGradient id="metal" x2="0.8" y2="1"><stop stop-color="#f1e9d9"/><stop offset="0.5" stop-color="#8fb9bf"/><stop offset="1" stop-color="#bba57a"/></linearGradient></defs><rect x="1" y="1" width="62" height="62" rx="5" fill="url(#field)"/><path d="M10 2H54 M2 10V54 M10 62H54 M62 10V54" stroke="#786b50" stroke-width=".7" fill="none"/><path d="M9 59H25 M39 59H55" stroke="#8fb9bf" stroke-width=".8" opacity=".55"/><g color="#8fb9bf" stroke-linecap="round" stroke-linejoin="round"><g transform="translate(4 3) scale(.87)"><circle cx="32" cy="32" r="21" fill="none" stroke="url(#metal)" stroke-width="2.6"/><circle cx="32" cy="32" r="15" fill="none" stroke="url(#metal)" stroke-width="2.6"/><g transform="translate(18 21) scale(.45)"><path d="M10 24Q19 15 28 24T46 24T57 24 M7 36Q16 27 25 36T43 36T56 36 M12 48Q21 39 30 48T48 48" fill="none" stroke="url(#metal)" stroke-width="2.6"/></g></g></g></svg>
